<?xml version="1.0" encoding="UTF-8" standalone="no"?>
<svg
   width="20"
   height="21"
   viewBox="0 0 20 21"
   fill="none"
   version="1.1"
   id="svg4"
   sodipodi:docname="bath.svg"
   xmlns:inkscape="http://www.inkscape.org/namespaces/inkscape"
   xmlns:sodipodi="http://sodipodi.sourceforge.net/DTD/sodipodi-0.dtd"
   xmlns="http://www.w3.org/2000/svg"
   xmlns:svg="http://www.w3.org/2000/svg">
  <defs
     id="defs8" />
  <sodipodi:namedview
     id="namedview6"
     pagecolor="#ffffff"
     bordercolor="#000000"
     borderopacity="0.25"
     inkscape:showpageshadow="2"
     inkscape:pageopacity="0.0"
     inkscape:pagecheckerboard="0"
     inkscape:deskcolor="#d1d1d1" />
  <g
     id="Bathroom">
    <path
       id="Union"
       fill-rule="evenodd"
       clip-rule="evenodd"
       d="M6.21406 4.86038C6.39334 4.68109 6.63651 4.58037 6.89006 4.58037H8.62408V5.73088C8.62408 6.06225 8.8927 6.33088 9.22408 6.33088C9.55545 6.33088 9.82408 6.06225 9.82408 5.73088V3.98037C9.82408 3.649 9.55545 3.38037 9.22408 3.38037H6.89006C6.31825 3.38037 5.76986 3.60752 5.36553 4.01185C4.9612 4.41618 4.73405 4.96457 4.73405 5.53638V10.3824H3.77803C3.41256 10.3824 3.06206 10.5276 2.80363 10.786C2.54521 11.0445 2.40002 11.395 2.40002 11.7604V14.0944C2.40002 15.0789 2.79111 16.0231 3.48725 16.7192C3.5696 16.8016 3.65541 16.8797 3.74435 16.9533L3.2788 17.6517C3.09499 17.9274 3.16949 18.2999 3.44521 18.4837C3.72093 18.6675 4.09345 18.593 4.27726 18.3173L4.7821 17.56C5.2026 17.7214 5.65294 17.8065 6.11205 17.8065H13.8921C14.3512 17.8065 14.8016 17.7214 15.2221 17.56L15.7269 18.3173C15.9107 18.593 16.2833 18.6675 16.559 18.4837C16.8347 18.2999 16.9092 17.9274 16.7254 17.6517L16.2598 16.9533C16.3488 16.8796 16.4346 16.8016 16.5169 16.7192C17.213 16.0231 17.6041 15.0789 17.6041 14.0944V11.7604C17.6041 11.395 17.4589 11.0445 17.2005 10.786C16.9421 10.5276 16.5916 10.3824 16.2261 10.3824H10.0021H7.54972C7.51666 10.3797 7.48343 10.3797 7.45037 10.3824H5.93405V5.53638C5.93405 5.28283 6.03477 5.03967 6.21406 4.86038ZM5.33218 11.5824L5.33405 11.5824L5.33592 11.5824H6.11308C6.08276 11.655 6.06671 11.7335 6.06671 11.8137V13.897V15.147C6.06671 15.4784 6.33534 15.747 6.66671 15.747H9.16671C9.49808 15.747 9.76671 15.4784 9.76671 15.147V13.897V12.0631L10.2497 11.5824H16.2261C16.2733 11.5824 16.3186 11.6012 16.352 11.6346C16.3854 11.6679 16.4041 11.7132 16.4041 11.7604V14.0944C16.4041 14.7607 16.1395 15.3996 15.6684 15.8707C15.1973 16.3418 14.5583 16.6065 13.8921 16.6065H6.11205C5.44582 16.6065 4.80687 16.3418 4.33578 15.8707C3.86468 15.3996 3.60002 14.7607 3.60002 14.0944V11.7604C3.60002 11.7132 3.61878 11.6679 3.65216 11.6346C3.68554 11.6012 3.73082 11.5824 3.77803 11.5824H5.33218ZM7.74653 11.5824H8.61308C8.58276 11.655 8.56671 11.7335 8.56671 11.8137V13.297H7.26671V12.0622L7.74653 11.5824ZM7.26671 14.497H8.56671V14.547H7.26671V14.497Z"
       fill="#868C93" />
  </g>
</svg>
