<svg width="47" height="51" viewBox="0 0 47 51" fill="none" xmlns="http://www.w3.org/2000/svg">
<path d="M6.97372 14.8377L23.5853 25.5242L40.1968 14.8377M23.5853 46.8336V25.503M40.7105 33.9676V17.0385C40.7099 16.2963 40.5337 15.5674 40.1997 14.9248C39.8657 14.2823 39.3857 13.7487 38.8077 13.3776L25.4881 4.91308C24.9095 4.54163 24.2533 4.34607 23.5853 4.34607C22.9172 4.34607 22.261 4.54163 21.6824 4.91308L8.36277 13.3776C7.78482 13.7487 7.30477 14.2823 6.97079 14.9248C6.63681 15.5674 6.46065 16.2963 6.45996 17.0385V33.9676C6.46065 34.7097 6.63681 35.4387 6.97079 36.0812C7.30477 36.7238 7.78482 37.2574 8.36277 37.6285L21.6824 46.093C22.261 46.4644 22.9172 46.66 23.5853 46.66C24.2533 46.66 24.9095 46.4644 25.4881 46.093L38.8077 37.6285C39.3857 37.2574 39.8657 36.7238 40.1997 36.0812C40.5337 35.4387 40.7099 34.7097 40.7105 33.9676Z" stroke="#394149" stroke-width="3" stroke-linecap="round" stroke-linejoin="round"/>
</svg>
