<svg xmlns="http://www.w3.org/2000/svg" width="51" height="49" viewBox="0 0 51 49" fill="none">
  <path d="M14.1426 14.4031C14.1426 13.0224 15.2619 11.9031 16.6426 11.9031H37.503C38.8838 11.9031 40.003 13.0224 40.003 14.4031V21.6473H14.1426V14.4031Z" stroke="#2E2E2E"/>
  <path d="M17.2124 19.5427C17.2124 18.7143 17.884 18.0427 18.7124 18.0427H23.9217C24.7501 18.0427 25.4217 18.7143 25.4217 19.5427V21.6474H17.2124V19.5427Z" stroke="#2E2E2E"/>
  <path d="M28.7241 19.5427C28.7241 18.7143 29.3957 18.0427 30.2241 18.0427H35.4334C36.2618 18.0427 36.9334 18.7143 36.9334 19.5427V21.6474H28.7241V19.8451V19.5427Z" stroke="#2E2E2E"/>
  <path d="M11.0728 24.3801C11.0728 22.9994 12.192 21.8801 13.5728 21.8801H40.5728C41.9535 21.8801 43.0728 22.9994 43.0728 24.3801V30.8569H11.0728V24.3801Z" stroke="#2E2E2E"/>
  <line x1="42.8052" y1="28.0193" x2="10.5726" y2="28.0193" stroke="#2E2E2E"/>
  <rect x="12.6074" y="31.0891" width="2.45714" height="2.14286" rx="0.5" stroke="#2E2E2E"/>
  <rect x="38.7007" y="31.0891" width="2.45714" height="2.14286" rx="0.5" stroke="#2E2E2E"/>
</svg>