<svg xmlns="http://www.w3.org/2000/svg" width="87" height="37" viewBox="0 0 87 37" fill="none">
  <path d="M30.1167 17.0303C30.1167 15.6496 31.236 14.5303 32.6167 14.5303H53.8034C55.1841 14.5303 56.3034 15.6496 56.3034 17.0303V24.2745H30.1167V17.0303Z" stroke="#2E2E2E"/>
  <path d="M33.2241 22.1699C33.2241 21.3415 33.8957 20.6699 34.7241 20.6699H40.0453C40.8737 20.6699 41.5453 21.3415 41.5453 22.1699V24.2746H33.2241V22.1699Z" stroke="#2E2E2E"/>
  <path d="M44.8755 22.1699C44.8755 21.3415 45.5471 20.6699 46.3755 20.6699H51.6966C52.5251 20.6699 53.1966 21.3415 53.1966 22.1699V24.2746H44.8755V22.4722V22.1699Z" stroke="#2E2E2E"/>
  <path d="M27.0098 27.0073C27.0098 25.6266 28.1291 24.5073 29.5098 24.5073H56.9106C58.2913 24.5073 59.4106 25.6266 59.4106 27.0073V33.4841H27.0098V27.0073Z" stroke="#2E2E2E"/>
  <line x1="59.1338" y1="30.6465" x2="26.5097" y2="30.6465" stroke="#2E2E2E"/>
  <rect x="28.563" y="33.7163" width="2.49913" height="2.14286" rx="0.5" stroke="#2E2E2E"/>
  <rect x="54.9731" y="33.7163" width="2.49913" height="2.14286" rx="0.5" stroke="#2E2E2E"/>
  <rect x="0.694336" y="0.5" width="17.2186" height="11.6" rx="0.5" stroke="#2E2E2E"/>
  <rect x="0.694336" y="14" width="17.2186" height="19.7" rx="0.5" stroke="#2E2E2E"/>
  <rect x="1.60547" y="12.2002" width="15.3968" height="1.7" rx="0.5" stroke="#2E2E2E"/>
  <rect x="2.51611" y="33.7998" width="2.73048" height="2.31714" rx="0.5" stroke="#2E2E2E"/>
  <rect x="13.4473" y="33.7998" width="2.73048" height="2.31714" rx="0.5" stroke="#2E2E2E"/>
  <path d="M2.61865 21.9514L2.61865 25.6371" stroke="#2E2E2E" stroke-linecap="round"/>
  <path d="M2.80566 4.7915L2.80566 8.47722" stroke="#2E2E2E" stroke-linecap="round"/>
  <path fill-rule="evenodd" clip-rule="evenodd" d="M73.189 20.5335C72.2889 20.5335 71.5592 21.2548 71.5592 22.1446C71.5592 23.0344 72.2889 23.7557 73.189 23.7557H79.7079C80.6079 23.7557 81.3376 23.0344 81.3376 22.1446C81.3376 21.2548 80.6079 20.5335 79.7079 20.5335H73.189ZM79.7079 21.3601H73.189C72.7507 21.3601 72.3954 21.7113 72.3954 22.1446C72.3954 22.5779 72.7507 22.9292 73.189 22.9292H79.7079C80.1462 22.9292 80.5015 22.5779 80.5015 22.1446C80.5015 21.7113 80.1462 21.3601 79.7079 21.3601Z" fill="#2E2E2E"/>
  <path fill-rule="evenodd" clip-rule="evenodd" d="M71.5592 29.2334C71.5592 28.3437 72.2889 27.6223 73.189 27.6223H79.7079C80.6079 27.6223 81.3376 28.3437 81.3376 29.2334C81.3376 30.1232 80.6079 30.8446 79.7079 30.8446H73.189C72.2889 30.8446 71.5592 30.1232 71.5592 29.2334ZM73.189 28.4489H79.7079C80.1462 28.4489 80.5015 28.8002 80.5015 29.2334C80.5015 29.6667 80.1462 30.018 79.7079 30.018H73.189C72.7507 30.018 72.3954 29.6667 72.3954 29.2334C72.3954 28.8002 72.7507 28.4489 73.189 28.4489Z" fill="#2E2E2E"/>
  <path fill-rule="evenodd" clip-rule="evenodd" d="M69.1147 7H74.9818L77.1004 14.7334H72.3954V17.9557H83.7185C85.1038 17.9557 86.2269 19.0659 86.2269 20.4354V33.7446H83.2731C83.2864 33.8032 83.2934 33.8641 83.2934 33.9266V35.1734C83.2934 35.6299 82.919 36 82.4573 36H80.8701C80.4083 36 80.0339 35.6299 80.0339 35.1734V33.9266C80.0339 33.8641 80.041 33.8032 80.0543 33.7446H73.1686C73.1819 33.8032 73.1889 33.8641 73.1889 33.9266V35.1734C73.1889 35.6299 72.8146 36 72.3528 36H70.7656C70.3038 36 69.9295 35.6299 69.9295 35.1734V33.9266C69.9295 33.8641 69.9365 33.8032 69.9498 33.7446H66.9961V20.4354C66.9961 19.0659 68.1191 17.9557 69.5045 17.9557H71.5592V14.7334H66.9961L69.1147 7ZM68.0888 13.9068L69.7545 7.82657H74.342L76.0077 13.9068H68.0888ZM69.5045 18.7823H83.7185C84.6421 18.7823 85.3907 19.5224 85.3907 20.4354V25.3666L67.8322 25.3666V20.4354C67.8322 19.5224 68.5809 18.7823 69.5045 18.7823ZM67.8322 26.1932L85.3907 26.1932V32.9181H67.8322V26.1932ZM72.3528 33.9266H70.7656L70.7656 35.1734H72.3528L72.3528 33.9266ZM80.8701 33.9266H82.4573V35.1734H80.8701V33.9266Z" fill="#2E2E2E"/>
</svg>