<svg width="47" height="51" viewBox="0 0 47 51" fill="none" xmlns="http://www.w3.org/2000/svg">
<path d="M16.0214 21.2708L23.6326 29.7353L31.2438 21.2708M8.41011 6.45789H38.8551C39.8644 6.45789 40.8324 6.90378 41.5461 7.69749C42.2597 8.49119 42.6607 9.56768 42.6607 10.6901V23.3869C42.6607 28.9993 40.656 34.3817 37.0875 38.3502C33.519 42.3187 28.6792 44.5482 23.6326 44.5482C21.1338 44.5482 18.6594 44.0009 16.3509 42.9374C14.0423 41.874 11.9446 40.3152 10.1777 38.3502C6.60923 34.3817 4.60449 28.9993 4.60449 23.3869V10.6901C4.60449 9.56768 5.00544 8.49119 5.71913 7.69749C6.43282 6.90378 7.4008 6.45789 8.41011 6.45789Z" stroke="#394149" stroke-width="3" stroke-linecap="round" stroke-linejoin="round"/>
</svg>
