<svg width="47" height="47" viewBox="0 0 47 47" fill="none" xmlns="http://www.w3.org/2000/svg">
<path d="M31.3335 31.3333V5.875H1.9585V31.3333H31.3335ZM31.3335 31.3333H45.0418V21.5417L39.1668 15.6667H31.3335V31.3333ZM15.6668 36.2292C15.6668 38.9331 13.4749 41.125 10.771 41.125C8.0671 41.125 5.87516 38.9331 5.87516 36.2292C5.87516 33.5253 8.0671 31.3333 10.771 31.3333C13.4749 31.3333 15.6668 33.5253 15.6668 36.2292ZM41.1252 36.2292C41.1252 38.9331 38.9332 41.125 36.2293 41.125C33.5254 41.125 31.3335 38.9331 31.3335 36.2292C31.3335 33.5253 33.5254 31.3333 36.2293 31.3333C38.9332 31.3333 41.1252 33.5253 41.1252 36.2292Z" stroke="#667085" stroke-width="3" stroke-linecap="round" stroke-linejoin="round"/>
</svg>
