<?xml version="1.0" encoding="UTF-8" standalone="no"?>
<svg
   width="20"
   height="21"
   viewBox="0 0 20 21"
   fill="none"
   version="1.1"
   id="svg9"
   sodipodi:docname="bed.svg"
   xmlns:inkscape="http://www.inkscape.org/namespaces/inkscape"
   xmlns:sodipodi="http://sodipodi.sourceforge.net/DTD/sodipodi-0.dtd"
   xmlns="http://www.w3.org/2000/svg"
   xmlns:svg="http://www.w3.org/2000/svg">
  <sodipodi:namedview
     id="namedview11"
     pagecolor="#ffffff"
     bordercolor="#000000"
     borderopacity="0.25"
     inkscape:showpageshadow="2"
     inkscape:pageopacity="0.0"
     inkscape:pagecheckerboard="0"
     inkscape:deskcolor="#d1d1d1" />
  <g
     id="Bed"
     clip-path="url(#clip0_761_761)">
    <path
       id="Union"
       fill-rule="evenodd"
       clip-rule="evenodd"
       d="M2.76665 5.64736C2.76665 5.31599 2.49802 5.04736 2.16665 5.04736C1.83528 5.04736 1.56665 5.31599 1.56665 5.64736V13.0716V17.314C1.56665 17.6454 1.83528 17.914 2.16665 17.914C2.49802 17.914 2.76665 17.6454 2.76665 17.314V13.6716H8.83332H16.5667V17.314C16.5667 17.6454 16.8353 17.914 17.1667 17.914C17.498 17.914 17.7666 17.6454 17.7666 17.314V13.0716V10.6474V10.6441V10.6408V10.6375V10.6342V10.6308V10.6275V10.6242V10.6209V10.6176V10.6143V10.6109V10.6076V10.6043V10.6009V10.5976V10.5943V10.5909V10.5876V10.5842V10.5809V10.5775V10.5742V10.5708V10.5675V10.5641V10.5607V10.5574V10.554V10.5506V10.5473V10.5439V10.5405V10.5371V10.5338V10.5304V10.527V10.5236V10.5202V10.5168V10.5134V10.51V10.5066V10.5032V10.4998V10.4964V10.493V10.4896V10.4862V10.4828V10.4793V10.4759V10.4725V10.4691V10.4657V10.4622V10.4588V10.4554V10.4519V10.4485V10.4451V10.4416V10.4382V10.4348V10.4313V10.4279V10.4244V10.421V10.4175V10.4141V10.4106V10.4072V10.4037V10.4003V10.3968V10.3933V10.3899V10.3864V10.383V10.3795V10.376V10.3726V10.3691V10.3656V10.3621V10.3587V10.3552V10.3517V10.3482V10.3447V10.3413V10.3378V10.3343V10.3308V10.3273V10.3238V10.3204V10.3169V10.3134V10.3099V10.3064V10.3029V10.2994V10.2959V10.2924V10.2889V10.2854V10.2819V10.2784V10.2749V10.2714V10.2679V10.2644V10.2609V10.2574V10.2539V10.2504V10.2469V10.2433V10.2398V10.2363V10.2328V10.2293V10.2258V10.2223V10.2188V10.2152V10.2117V10.2082V10.2047V10.2012V10.1976V10.1941V10.1906V10.1871V10.1836V10.18V10.1765V10.173V10.1695V10.166V10.1624V10.1589V10.1554V10.1519V10.1483V10.1448V10.1413V10.1378V10.1342V10.1307V10.1272V10.1237V10.1201V10.1166V10.1131V10.1096V10.106V10.1025V10.099V10.0954V10.0919V10.0884V10.0849V10.0813V10.0778V10.0743V10.0708V10.0672V10.0637V10.0602V10.0566V10.0531V10.0496V10.0461V10.0425V10.039V10.0355V10.032V10.0284V10.0249V10.0214V10.0179V10.0143V10.0108V10.0073V10.0038V10.0003V9.99674V9.99322V9.98969V9.98617V9.98266V9.97914V9.97562V9.9721V9.96858V9.96507V9.96155V9.95804V9.95452V9.95101V9.94749V9.94398V9.94047V9.93696V9.93345V9.92994V9.92643V9.92292V9.91942V9.91591V9.91241V9.9089V9.9054V9.9019V9.89839V9.89489V9.89139V9.8879V9.8844V9.8809V9.87741V9.87391V9.87042V9.86693V9.86344V9.85995V9.85646V9.85297V9.84948V9.846V9.84251V9.83903V9.83555V9.83207V9.82859V9.82511V9.82164V9.81816V9.81469V9.81122V9.80775V9.80428V9.80081V9.79734V9.79388V9.79041V9.78695V9.78349V9.78003V9.77658V9.77312V9.76967V9.76621V9.76276V9.75931V9.75587V9.75242V9.74898V9.74553V9.74209V9.73865V9.73522V9.73178V9.72835V9.72492V9.72149V9.71806V9.71463V9.71121V9.70779V9.70436V9.70095V9.69753V9.69412V9.6907V9.68729V9.68388V9.68048V9.67707V9.67367V9.67027V9.66687V9.66348V9.66008V9.65669V9.6533V9.64992V9.64653V9.64315V9.63977V9.63639V9.63302V9.62964V9.62627V9.6229V9.61954V9.61617V9.61281V9.60945V9.6061V9.60274V9.59939V9.59604V9.59269V9.58935V9.58601V9.58267V9.57933V9.576V9.57267V9.56934V9.56601V9.56269V9.55937V9.55605V9.55274V9.54943V9.54612V9.54281V9.53951V9.5362V9.53291V9.52961V9.52632V9.52303V9.51974V9.51646V9.51318V9.5099V9.50663V9.50335V9.50008V9.49682V9.49356V9.4903V9.48704V9.48379V9.48054V9.47729V9.47404V9.4708V9.46757V9.46433V9.4611V9.45787V9.45465V9.45142V9.44821V9.44499V9.44178V9.43857V9.43537V9.43217V9.42897V9.42577V9.42258V9.41939V9.41621V9.41303V9.40985V9.40668V9.40351V9.40034V9.39718V9.39402V9.39086V9.38771V9.38456V9.38142V9.37827V9.37514V9.372V9.36887V9.36575V9.36262V9.35951V9.35639V9.35328V9.35017V9.34707V9.34397V9.34087V9.33778V9.33469V9.33161V9.32853V9.32545V9.32238V9.31931V9.31625V9.31319V9.31014V9.30708V9.30404V9.30099V9.29795V9.29492V9.29189V9.28886V9.28584V9.28282V9.27981V9.2768V9.27379V9.27079V9.26779V9.2648V9.26181V9.25883V9.25585V9.25288V9.24991V9.24694V9.24398V9.24102V9.23807V9.23512V9.23218V9.22924V9.2263V9.22337V9.22045V9.21753V9.21461V9.2117V9.20879V9.20589V9.20299V9.2001V9.19721V9.19433V9.19145V9.18858V9.18571V9.18285V9.17999V9.17713V9.17428V9.17144V9.1686V9.16577V9.16294V9.16011V9.15729V9.15448V9.15167V9.14887V9.14607V9.14327V9.14048V9.1377V9.13492V9.13215V9.12938V9.12662V9.12386V9.1211V9.11836V9.11561V9.11288V9.11015V9.10742V9.1047V9.10198V9.09927V9.09657V9.09387V9.09117V9.08848V9.0858V9.08312V9.08045V9.07778V9.07512V9.07247V9.06982V9.06717V9.06453V9.0619V9.05927V9.05665V9.05403V9.05142V9.04882V9.04622V9.04362V9.04103V9.03845V9.03588V9.03331V9.03074V9.02818V9.02563V9.02308V9.02054V9.01801V9.01548V9.01295V9.01044V9.00792V9.00542V9.00292V9.00042V8.99794V8.99546V8.99298V8.99051V8.98805V8.98559V8.98314V8.9807C17.7666 8.70664 17.6071 8.51714 17.5343 8.44029C17.439 8.33969 17.3238 8.25727 17.2085 8.19283C16.9778 8.06387 16.6696 7.96403 16.3333 7.96403H8.83332C8.50195 7.96403 8.23332 8.23266 8.23332 8.56403V12.4716H2.76665V5.64736ZM16.5667 12.4716H9.43332V9.16403H16.3333C16.415 9.16403 16.4982 9.18435 16.5667 9.21301V9.21461V9.21753V9.22045V9.22337V9.2263V9.22924V9.23218V9.23512V9.23807V9.24102V9.24398V9.24694V9.24991V9.25288V9.25585V9.25883V9.26181V9.2648V9.26779V9.27079V9.27379V9.2768V9.27981V9.28282V9.28584V9.28886V9.29189V9.29492V9.29795V9.30099V9.30404V9.30708V9.31014V9.31319V9.31625V9.31931V9.32238V9.32545V9.32853V9.33161V9.33469V9.33778V9.34087V9.34397V9.34707V9.35017V9.35328V9.35639V9.35951V9.36262V9.36575V9.36887V9.372V9.37514V9.37827V9.38142V9.38456V9.38771V9.39086V9.39402V9.39718V9.40034V9.40351V9.40668V9.40985V9.41303V9.41621V9.41939V9.42258V9.42577V9.42897V9.43217V9.43537V9.43857V9.44178V9.44499V9.44821V9.45142V9.45465V9.45787V9.4611V9.46433V9.46757V9.4708V9.47404V9.47729V9.48054V9.48379V9.48704V9.4903V9.49356V9.49682V9.50008V9.50335V9.50663V9.5099V9.51318V9.51646V9.51974V9.52303V9.52632V9.52961V9.53291V9.5362V9.53951V9.54281V9.54612V9.54943V9.55274V9.55605V9.55937V9.56269V9.56601V9.56934V9.57267V9.576V9.57933V9.58267V9.58601V9.58935V9.59269V9.59604V9.59939V9.60274V9.6061V9.60945V9.61281V9.61617V9.61954V9.6229V9.62627V9.62964V9.63302V9.63639V9.63977V9.64315V9.64653V9.64992V9.6533V9.65669V9.66008V9.66348V9.66687V9.67027V9.67367V9.67707V9.68048V9.68388V9.68729V9.6907V9.69412V9.69753V9.70095V9.70436V9.70779V9.71121V9.71463V9.71806V9.72149V9.72492V9.72835V9.73178V9.73522V9.73865V9.74209V9.74553V9.74898V9.75242V9.75587V9.75931V9.76276V9.76621V9.76967V9.77312V9.77658V9.78003V9.78349V9.78695V9.79041V9.79388V9.79734V9.80081V9.80428V9.80775V9.81122V9.81469V9.81816V9.82164V9.82511V9.82859V9.83207V9.83555V9.83903V9.84251V9.846V9.84948V9.85297V9.85646V9.85995V9.86344V9.86693V9.87042V9.87391V9.87741V9.8809V9.8844V9.8879V9.89139V9.89489V9.89839V9.9019V9.9054V9.9089V9.91241V9.91591V9.91942V9.92292V9.92643V9.92994V9.93345V9.93696V9.94047V9.94398V9.94749V9.95101V9.95452V9.95804V9.96155V9.96507V9.96858V9.9721V9.97562V9.97914V9.98266V9.98617V9.98969V9.99322V9.99674V10.0003V10.0038V10.0073V10.0108V10.0143V10.0179V10.0214V10.0249V10.0284V10.032V10.0355V10.039V10.0425V10.0461V10.0496V10.0531V10.0566V10.0602V10.0637V10.0672V10.0708V10.0743V10.0778V10.0813V10.0849V10.0884V10.0919V10.0954V10.099V10.1025V10.106V10.1096V10.1131V10.1166V10.1201V10.1237V10.1272V10.1307V10.1342V10.1378V10.1413V10.1448V10.1483V10.1519V10.1554V10.1589V10.1624V10.166V10.1695V10.173V10.1765V10.18V10.1836V10.1871V10.1906V10.1941V10.1976V10.2012V10.2047V10.2082V10.2117V10.2152V10.2188V10.2223V10.2258V10.2293V10.2328V10.2363V10.2398V10.2433V10.2469V10.2504V10.2539V10.2574V10.2609V10.2644V10.2679V10.2714V10.2749V10.2784V10.2819V10.2854V10.2889V10.2924V10.2959V10.2994V10.3029V10.3064V10.3099V10.3134V10.3169V10.3204V10.3238V10.3273V10.3308V10.3343V10.3378V10.3413V10.3447V10.3482V10.3517V10.3552V10.3587V10.3621V10.3656V10.3691V10.3726V10.376V10.3795V10.383V10.3864V10.3899V10.3933V10.3968V10.4003V10.4037V10.4072V10.4106V10.4141V10.4175V10.421V10.4244V10.4279V10.4313V10.4348V10.4382V10.4416V10.4451V10.4485V10.4519V10.4554V10.4588V10.4622V10.4657V10.4691V10.4725V10.4759V10.4793V10.4828V10.4862V10.4896V10.493V10.4964V10.4998V10.5032V10.5066V10.51V10.5134V10.5168V10.5202V10.5236V10.527V10.5304V10.5338V10.5371V10.5405V10.5439V10.5473V10.5506V10.554V10.5574V10.5607V10.5641V10.5675V10.5708V10.5742V10.5775V10.5809V10.5842V10.5876V10.5909V10.5943V10.5976V10.6009V10.6043V10.6076V10.6109V10.6143V10.6176V10.6209V10.6242V10.6275V10.6308V10.6342V10.6375V10.6408V10.6441V10.6474V12.4716ZM5.26665 10.2307C5.26665 9.87171 5.55767 9.5807 5.91665 9.5807C6.27564 9.5807 6.56665 9.87171 6.56665 10.2307C6.56665 10.5897 6.27564 10.8807 5.91665 10.8807C5.55767 10.8807 5.26665 10.5897 5.26665 10.2307ZM5.91665 8.3807C4.89492 8.3807 4.06665 9.20897 4.06665 10.2307C4.06665 11.2524 4.89492 12.0807 5.91665 12.0807C6.93838 12.0807 7.76665 11.2524 7.76665 10.2307C7.76665 9.20897 6.93838 8.3807 5.91665 8.3807Z"
       fill="#868C93" />
  </g>
  <defs
     id="defs7">
    <clipPath
       id="clip0_761_761">
      <rect
         width="20"
         height="20"
         fill="white"
         transform="translate(0 0.980469)"
         id="rect4" />
    </clipPath>
  </defs>
</svg>
